<svg xmlns="http://www.w3.org/2000/svg" xmlns:xlink="http://www.w3.org/1999/xlink" width="169" zoomAndPan="magnify" viewBox="0 0 126.75 52.499999" height="70" preserveAspectRatio="xMidYMid meet" version="1.0"><defs><g/><clipPath id="b07bbb81ec"><path d="M 0.472656 21 L 13 21 L 13 39 L 0.472656 39 Z M 0.472656 21 " clip-rule="nonzero"/></clipPath></defs><g clip-path="url(#b07bbb81ec)"><g fill="#ffffff" fill-opacity="1"><g transform="translate(3.766909, 32.355805)"><g><path d="M 8.335938 -5.964844 C 7.050781 -8.167969 5.929688 -9.726562 4.847656 -11.015625 L 4.507812 -11.015625 C 3.59375 -10.066406 2.777344 -8.878906 2.136719 -7.558594 L 2.746094 -7.015625 C 4.304688 -4.949219 5.558594 -3.152344 6.644531 -1.457031 C 4.609375 0.949219 2.101562 2.339844 -0.644531 2.339844 C -1.558594 2.339844 -2.441406 2.203125 -3.21875 1.933594 L -3.390625 2.238281 C -2.339844 3.726562 1.457031 6.441406 2.203125 6.441406 C 4.371094 5.183594 5.421875 4.269531 6.609375 2.847656 C 6.914062 2.472656 7.660156 -1.695312 7.660156 -3.964844 C 7.660156 -4.304688 7.457031 -5.082031 7.050781 -5.929688 L 8.132812 -5.726562 Z M 8.335938 -5.964844 "/></g></g></g></g><g fill="#ffffff" fill-opacity="1"><g transform="translate(12.780162, 32.355805)"><g><path d="M 10.371094 -4.136719 C 10.167969 -8.710938 8.4375 -11.691406 5.863281 -11.691406 C 3.1875 -11.691406 1.390625 -7.355469 1.390625 -4.609375 C 1.390625 -1.761719 3.558594 -0.136719 8.847656 0.269531 C 6.167969 1.761719 4.101562 2.339844 1.726562 2.339844 C 0.8125 2.339844 -0.0664062 2.203125 -0.847656 1.933594 L -1.015625 2.238281 C 0.0351562 3.726562 3.828125 6.441406 4.574219 6.441406 C 7.117188 4.8125 9.050781 2.710938 9.898438 0 L 12.335938 0 C 12.539062 0 12.640625 -0.136719 12.640625 -0.304688 L 12.640625 -3.863281 C 12.640625 -4 12.574219 -4.136719 12.335938 -4.136719 Z M 2.269531 -5.183594 C 3.085938 -6.777344 4.066406 -7.726562 5.152344 -7.726562 C 6.40625 -7.726562 7.660156 -6.304688 8.640625 -3.796875 C 5.421875 -3.863281 3.863281 -4.339844 2.269531 -5.183594 Z M 2.269531 -5.183594 "/></g></g></g><g fill="#ffffff" fill-opacity="1"><g transform="translate(25.114084, 32.355805)"><g><path d="M 3.558594 0 C 3.761719 0 3.863281 -0.136719 3.863281 -0.304688 L 3.863281 -3.863281 C 3.863281 -4 3.796875 -4.136719 3.558594 -4.136719 L 0 -4.136719 C -0.238281 -4.136719 -0.304688 -4 -0.304688 -3.863281 L -0.304688 -0.304688 C -0.304688 -0.136719 -0.203125 0 0 0 Z M 3.558594 0 "/></g></g></g><g fill="#ffffff" fill-opacity="1"><g transform="translate(28.671951, 32.355805)"><g><path d="M 3.558594 0 C 3.761719 0 3.863281 -0.136719 3.863281 -0.304688 L 3.863281 -3.863281 C 3.863281 -4 3.796875 -4.136719 3.558594 -4.136719 L 0 -4.136719 C -0.238281 -4.136719 -0.304688 -4 -0.304688 -3.863281 L -0.304688 -0.304688 C -0.304688 -0.136719 -0.203125 0 0 0 Z M 3.558594 0 "/></g></g></g><g fill="#ffffff" fill-opacity="1"><g transform="translate(32.229817, 32.355805)"><g><path d="M 3.558594 0 C 3.761719 0 3.863281 -0.136719 3.863281 -0.304688 L 3.863281 -3.863281 C 3.863281 -4 3.796875 -4.136719 3.558594 -4.136719 L 0 -4.136719 C -0.238281 -4.136719 -0.304688 -4 -0.304688 -3.863281 L -0.304688 -0.304688 C -0.304688 -0.136719 -0.203125 0 0 0 Z M 3.558594 0 "/></g></g></g><g fill="#ffffff" fill-opacity="1"><g transform="translate(35.787684, 32.355805)"><g><path d="M 11.386719 -12.84375 C 9.117188 -12.84375 7.320312 -11.625 4.203125 -6.777344 C 4.609375 -7.660156 5.863281 -10.640625 5.863281 -11.761719 C 5.863281 -12.234375 5.828125 -13.015625 5.726562 -14.507812 L 6.609375 -13.996094 L 6.847656 -14.199219 C 5.964844 -17.183594 5.183594 -19.320312 4.339844 -21.046875 L 4 -21.046875 C 3.085938 -20.097656 2.304688 -18.980469 1.625 -17.589844 L 2.101562 -17.046875 C 2.847656 -12.675781 3.117188 -10.84375 3.695312 -5.964844 L 2.609375 -4.203125 C 1.492188 -4.167969 0.542969 -4.136719 0 -4.136719 C -0.238281 -4.136719 -0.304688 -4 -0.304688 -3.863281 L -0.304688 -0.304688 C -0.304688 -0.136719 -0.203125 0 0 0 C 9.726562 0 12.304688 -0.472656 13.589844 -1.152344 C 14.167969 -1.457031 16.335938 -6.101562 16.335938 -6.949219 C 16.335938 -10.4375 14.269531 -12.84375 11.386719 -12.84375 Z M 10.878906 -19.792969 L 8.269531 -17.148438 L 10.878906 -14.539062 L 13.457031 -17.148438 Z M 3.152344 -4.203125 C 6.203125 -8.066406 7.796875 -8.8125 9.828125 -8.8125 C 11.691406 -8.8125 13.117188 -7.660156 14.402344 -5.117188 C 12.640625 -4.644531 6.980469 -4.339844 3.152344 -4.203125 Z M 3.152344 -4.203125 "/></g></g></g><g fill="#ffffff" fill-opacity="1"><g transform="translate(52.797646, 32.355805)"><g><path d="M 7.964844 -4.136719 C 6.8125 -4.136719 5.929688 -4.238281 5.050781 -4.472656 L 4.507812 -20.402344 L 4.167969 -20.402344 C 2.914062 -19.453125 1.863281 -18.402344 0.847656 -17.082031 C 1.21875 -12.980469 1.761719 -8.8125 2.136719 -6 C 2.675781 -1.898438 4.472656 0 7.964844 0 C 8.167969 0 8.269531 -0.136719 8.269531 -0.304688 L 8.269531 -3.863281 C 8.269531 -4 8.203125 -4.136719 7.964844 -4.136719 Z M 7.964844 -4.136719 "/></g></g></g><g fill="#ffffff" fill-opacity="1"><g transform="translate(60.760482, 32.355805)"><g><path d="M 3.558594 0 C 3.761719 0 3.863281 -0.136719 3.863281 -0.304688 L 3.863281 -3.863281 C 3.863281 -4 3.796875 -4.136719 3.558594 -4.136719 L 0 -4.136719 C -0.238281 -4.136719 -0.304688 -4 -0.304688 -3.863281 L -0.304688 -0.304688 C -0.304688 -0.136719 -0.203125 0 0 0 Z M 3.558594 0 "/></g></g></g><g fill="#ffffff" fill-opacity="1"><g transform="translate(64.318348, 32.355805)"><g><path d="M 3.558594 0 C 3.761719 0 3.863281 -0.136719 3.863281 -0.304688 L 3.863281 -3.863281 C 3.863281 -4 3.796875 -4.136719 3.558594 -4.136719 L 0 -4.136719 C -0.238281 -4.136719 -0.304688 -4 -0.304688 -3.863281 L -0.304688 -0.304688 C -0.304688 -0.136719 -0.203125 0 0 0 Z M 3.558594 0 "/></g></g></g><g fill="#ffffff" fill-opacity="1"><g transform="translate(67.876215, 32.355805)"><g><path d="M 3.558594 0 C 3.761719 0 3.863281 -0.136719 3.863281 -0.304688 L 3.863281 -3.863281 C 3.863281 -4 3.796875 -4.136719 3.558594 -4.136719 L 0 -4.136719 C -0.238281 -4.136719 -0.304688 -4 -0.304688 -3.863281 L -0.304688 -0.304688 C -0.304688 -0.136719 -0.203125 0 0 0 Z M 3.558594 0 "/></g></g></g><g fill="#ffffff" fill-opacity="1"><g transform="translate(71.434081, 32.355805)"><g><path d="M 3.558594 0 C 3.761719 0 3.863281 -0.136719 3.863281 -0.304688 L 3.863281 -3.863281 C 3.863281 -4 3.796875 -4.136719 3.558594 -4.136719 L 0 -4.136719 C -0.238281 -4.136719 -0.304688 -4 -0.304688 -3.863281 L -0.304688 -0.304688 C -0.304688 -0.136719 -0.203125 0 0 0 Z M 3.558594 0 "/></g></g></g><g fill="#ffffff" fill-opacity="1"><g transform="translate(74.991948, 32.355805)"><g><path d="M 3.558594 0 C 3.761719 0 3.863281 -0.136719 3.863281 -0.304688 L 3.863281 -3.863281 C 3.863281 -4 3.796875 -4.136719 3.558594 -4.136719 L 0 -4.136719 C -0.238281 -4.136719 -0.304688 -4 -0.304688 -3.863281 L -0.304688 -0.304688 C -0.304688 -0.136719 -0.203125 0 0 0 Z M 3.558594 0 "/></g></g></g><g fill="#ffffff" fill-opacity="1"><g transform="translate(78.549814, 32.355805)"><g><path d="M 3.558594 0 C 3.761719 0 3.863281 -0.136719 3.863281 -0.304688 L 3.863281 -3.863281 C 3.863281 -4 3.796875 -4.136719 3.558594 -4.136719 L 0 -4.136719 C -0.238281 -4.136719 -0.304688 -4 -0.304688 -3.863281 L -0.304688 -0.304688 C -0.304688 -0.136719 -0.203125 0 0 0 Z M 3.558594 0 "/></g></g></g><g fill="#ffffff" fill-opacity="1"><g transform="translate(82.10768, 32.355805)"><g><path d="M 3.558594 0 C 3.761719 0 3.863281 -0.136719 3.863281 -0.304688 L 3.863281 -3.863281 C 3.863281 -4 3.796875 -4.136719 3.558594 -4.136719 L 0 -4.136719 C -0.238281 -4.136719 -0.304688 -4 -0.304688 -3.863281 L -0.304688 -0.304688 C -0.304688 -0.136719 -0.203125 0 0 0 Z M 3.558594 0 "/></g></g></g><g fill="#ffffff" fill-opacity="1"><g transform="translate(85.665547, 32.355805)"><g><path d="M 3.558594 0 C 3.761719 0 3.863281 -0.136719 3.863281 -0.304688 L 3.863281 -3.863281 C 3.863281 -4 3.796875 -4.136719 3.558594 -4.136719 L 0 -4.136719 C -0.238281 -4.136719 -0.304688 -4 -0.304688 -3.863281 L -0.304688 -0.304688 C -0.304688 -0.136719 -0.203125 0 0 0 Z M 3.558594 0 "/></g></g></g><g fill="#ffffff" fill-opacity="1"><g transform="translate(89.223413, 32.355805)"><g><path d="M 3.558594 0 C 3.761719 0 3.863281 -0.136719 3.863281 -0.304688 L 3.863281 -3.863281 C 3.863281 -4 3.796875 -4.136719 3.558594 -4.136719 L 0 -4.136719 C -0.238281 -4.136719 -0.304688 -4 -0.304688 -3.863281 L -0.304688 -0.304688 C -0.304688 -0.136719 -0.203125 0 0 0 Z M 3.558594 0 "/></g></g></g><g fill="#ffffff" fill-opacity="1"><g transform="translate(92.78128, 32.355805)"><g><path d="M 3.558594 0 C 3.761719 0 3.863281 -0.136719 3.863281 -0.304688 L 3.863281 -3.863281 C 3.863281 -4 3.796875 -4.136719 3.558594 -4.136719 L 0 -4.136719 C -0.238281 -4.136719 -0.304688 -4 -0.304688 -3.863281 L -0.304688 -0.304688 C -0.304688 -0.136719 -0.203125 0 0 0 Z M 3.558594 0 "/></g></g></g><g fill="#ffffff" fill-opacity="1"><g transform="translate(96.339146, 32.355805)"><g><path d="M 3.558594 0 C 3.761719 0 3.863281 -0.136719 3.863281 -0.304688 L 3.863281 -3.863281 C 3.863281 -4 3.796875 -4.136719 3.558594 -4.136719 L 0 -4.136719 C -0.238281 -4.136719 -0.304688 -4 -0.304688 -3.863281 L -0.304688 -0.304688 C -0.304688 -0.136719 -0.203125 0 0 0 Z M 3.558594 0 "/></g></g></g><g fill="#ffffff" fill-opacity="1"><g transform="translate(99.897013, 32.355805)"><g><path d="M 3.558594 0 C 3.761719 0 3.863281 -0.136719 3.863281 -0.304688 L 3.863281 -3.863281 C 3.863281 -4 3.796875 -4.136719 3.558594 -4.136719 L 0 -4.136719 C -0.238281 -4.136719 -0.304688 -4 -0.304688 -3.863281 L -0.304688 -0.304688 C -0.304688 -0.136719 -0.203125 0 0 0 Z M 3.558594 0 "/></g></g></g><g fill="#ffffff" fill-opacity="1"><g transform="translate(103.454879, 32.355805)"><g><path d="M 4.8125 -16.675781 L 2.203125 -14.03125 L 4.8125 -11.421875 L 7.386719 -14.03125 Z M 7.421875 -4.136719 C 6.167969 -4.136719 5.390625 -4.304688 4.203125 -4.777344 L 5.320312 -9.625 L 4.8125 -9.726562 L 3.660156 -4.675781 C 2.609375 -4.304688 0.679688 -4.136719 0 -4.136719 C -0.238281 -4.136719 -0.304688 -4 -0.304688 -3.863281 L -0.304688 -0.304688 C -0.304688 -0.136719 -0.203125 0 0 0 C 1.085938 0 1.964844 -0.339844 2.644531 -0.949219 C 3.726562 -0.371094 5.59375 0 7.421875 0 C 7.625 0 7.726562 -0.136719 7.726562 -0.304688 L 7.726562 -3.863281 C 7.726562 -4.03125 7.625 -4.136719 7.421875 -4.136719 Z M 7.421875 -4.136719 "/></g></g></g><g fill="#ffffff" fill-opacity="1"><g transform="translate(110.875565, 32.355805)"><g><path d="M 7.253906 -14.167969 C 6.371094 -17.148438 5.59375 -19.285156 4.746094 -21.011719 L 4.40625 -21.011719 C 3.492188 -20.0625 2.710938 -18.945312 2.035156 -17.554688 L 2.542969 -16.945312 C 3.152344 -13.082031 3.761719 -8.847656 4.304688 -4.644531 C 3.1875 -4.339844 1.523438 -4.136719 0 -4.136719 C -0.238281 -4.136719 -0.304688 -4 -0.304688 -3.863281 L -0.304688 -0.304688 C -0.304688 -0.136719 -0.203125 0 0 0 C 0.949219 0 2.035156 -0.167969 2.710938 -0.441406 C 3.320312 -0.679688 6.644531 -5.761719 6.644531 -7.082031 C 6.644531 -8.066406 6.441406 -10.878906 6.167969 -14.4375 L 7.015625 -13.964844 Z M 7.253906 -14.167969 "/></g></g></g><g fill="#ffffff" fill-opacity="1"><g transform="translate(119.312784, 32.355805)"><g><path d="M 6.234375 -14.167969 C 5.355469 -17.148438 4.574219 -19.285156 3.726562 -21.011719 L 3.390625 -21.011719 C 2.472656 -20.0625 1.695312 -18.945312 1.015625 -17.554688 L 1.457031 -17.046875 C 2.066406 -11.964844 2.339844 -7.964844 2.339844 -3.457031 C 2.339844 -2.101562 2.269531 -0.882812 2.167969 0.40625 L 2.507812 0.40625 C 4.304688 -1.390625 5.695312 -3.863281 5.695312 -5.796875 C 5.695312 -7.625 5.492188 -10.878906 5.183594 -14.4375 L 6 -13.964844 Z M 6.234375 -14.167969 "/></g></g></g></svg>