<?xml version="1.0" standalone="no"?>
<!DOCTYPE svg PUBLIC "-//W3C//DTD SVG 20010904//EN"
 "http://www.w3.org/TR/2001/REC-SVG-20010904/DTD/svg10.dtd">
<svg version="1.0" xmlns="http://www.w3.org/2000/svg"
 width="500.000000pt" height="500.000000pt" viewBox="0 0 500.000000 500.000000"
 preserveAspectRatio="xMidYMid meet">
<metadata>
Created by potrace 1.14, written by Peter Selinger 2001-2017
</metadata>
<g transform="translate(0.000000,500.000000) scale(0.100000,-0.100000)"
fill="#000000" stroke="none">
<path d="M2010 4729 c-146 -149 -266 -274 -268 -277 -1 -4 140 -149 313 -322
l315 -314 310 314 c170 173 308 318 307 322 -3 8 -158 171 -369 386 l-159 162
-92 -1 -92 0 -265 -270z"/>
<path d="M3614 4022 c-26 -4 -94 -74 -195 -202 -135 -170 -248 -344 -357 -550
l-44 -84 28 -24 c64 -53 104 -94 117 -120 193 -375 634 -1290 625 -1297 -36
-30 -287 -160 -348 -180 -3 -1 -18 -7 -35 -14 -186 -78 -543 -158 -783 -177
-64 -4 -365 -4 -426 0 -130 11 -209 21 -286 36 -30 6 -66 13 -80 16 -133 26
-306 96 -407 165 -128 88 -228 223 -270 362 -48 162 -51 405 -8 667 2 14 7 48
11 75 3 28 8 53 10 57 3 4 7 26 10 49 4 23 14 75 24 116 l18 75 -34 14 c-18 8
-37 14 -42 14 -4 0 -32 -56 -61 -125 -159 -383 -266 -737 -311 -1037 -16 -109
-5 -399 19 -515 57 -274 163 -476 346 -658 148 -149 298 -240 508 -310 183
-60 312 -79 547 -79 284 0 513 34 768 116 288 92 579 262 712 416 119 138 266
584 378 1147 56 280 61 321 49 460 -7 83 -11 112 -27 204 -6 30 -10 60 -10 66
0 7 48 -4 126 -30 l125 -42 24 30 c17 22 21 36 15 51 -80 209 -323 711 -449
930 -28 49 -51 90 -51 92 0 6 -121 207 -151 249 -26 39 -37 44 -85 37z"/>
</g>
</svg>
